M48
; DRILL file {KiCad (5.1.2-1)-1} date Tuesday, 28 May 2019 at 10:16:09
; FORMAT={-:-/ absolute / metric / decimal}
; #@! TF.CreationDate,2019-05-28T10:16:09+02:00
; #@! TF.GenerationSoftware,Kicad,Pcbnew,(5.1.2-1)-1
FMAT,2
METRIC
T1C1.000
T2C3.200
%
G90
G05
T1
X121.355Y-49.77
X122.5Y-47.79
X122.5Y-51.75
X123.645Y-49.77
X124.79Y-47.79
X124.79Y-51.75
X125.935Y-49.77
X127.08Y-47.79
X127.08Y-51.75
X128.225Y-49.77
X129.37Y-47.79
X129.37Y-51.75
X130.515Y-49.77
X131.66Y-47.79
X131.66Y-51.75
X123.75Y-66.0
X125.135Y-68.84
X126.52Y-66.0
X127.905Y-68.84
X129.29Y-66.0
X130.675Y-68.84
X132.06Y-66.0
X133.445Y-68.84
X134.83Y-66.0
X136.215Y-68.84
X137.6Y-66.0
X138.985Y-68.84
X140.37Y-66.0
X141.755Y-68.84
X143.14Y-66.0
T2
X114.315Y-50.33
X139.315Y-50.33
X116.795Y-67.42
X150.095Y-67.42
T1
G00X152.2Y-43.0
M15
G01X150.8Y-43.0
M16
G05
G00X152.2Y-46.5
M15
G01X150.8Y-46.5
M16
G05
G00X152.2Y-50.0
M15
G01X150.8Y-50.0
M16
G05
T0
M30
